<?xml version="1.0" encoding="utf-8"?>
<!DOCTYPE svg PUBLIC "-//W3C//DTD SVG 1.0//EN" "http://www.w3.org/TR/2001/REC-SVG-20010904/DTD/svg10.dtd">
<svg version="1.0" xmlns="http://www.w3.org/2000/svg" width="1024px" height="572px" viewBox="0 0 1024 572" preserveAspectRatio="xMidYMid meet">
 <g fill="#000001">
  <path d="M0 285.77 l0 -285.77 512 0 512 0 0 285.77 0 285.77 -512 0 -512 0 0 -285.77z m470.55 157.25 c0.82 -17.19 4.32 -31.03 10.42 -41.82 5.95 -10.49 18.38 -21.73 31.03 -27.98 6.10 -3.05 13.25 -8.33 14.51 -10.79 0.60 -1.19 1.12 -3.20 1.12 -4.39 l0 -2.23 -5.21 3.94 c-2.90 2.16 -8.33 5.58 -12.13 7.52 -3.80 2.01 -9.30 5.06 -12.28 6.85 -5.73 3.35 -9.15 4.02 -12.28 2.38 -1.34 -0.67 -1.49 -0.67 -0.67 0.15 0.45 0.52 0.89 2.38 0.89 4.17 l0 3.20 -4.39 0 c-5.28 0 -15.03 -1.71 -21.66 -3.87 -21.36 -6.85 -43.09 -26.94 -54.03 -50.01 -3.72 -7.96 -8.41 -21.66 -10.42 -30.73 -0.82 -3.42 -1.71 -6.18 -2.08 -6.18 -0.37 0 -8.04 4.76 -17.12 10.57 -27.31 17.56 -35.42 22.92 -35.42 23.37 0 0.45 4.24 7.67 4.91 8.41 0.15 0.15 2.60 -1.27 5.51 -3.13 3.27 -2.23 6.03 -3.50 7.44 -3.50 l2.23 0 0 61.77 0 61.77 54.55 0 54.62 0 0.45 -9.45z m192.67 -52.09 l0.22 -61.62 2.38 -0.22 c1.86 -0.15 3.57 0.60 7.44 3.13 l5.06 3.42 1.12 -1.64 c0.60 -0.89 1.86 -2.83 2.75 -4.39 l1.71 -2.75 -25.53 -16.52 c-13.99 -9.15 -25.97 -16.74 -26.57 -16.89 -0.89 -0.22 -1.71 2.01 -3.65 9.97 -5.88 24.04 -14.36 40.41 -28.20 54.40 -16.15 16.30 -34.31 25.82 -50.90 26.72 -8.41 0.45 -9.53 0 -9.53 -4.17 0 -2.46 0.30 -2.90 3.94 -4.99 4.76 -2.90 7.29 -3.72 15.78 -5.13 3.72 -0.67 8.41 -1.93 10.49 -2.90 7.52 -3.50 16.30 -12.95 24.48 -26.42 0.45 -0.82 0.30 -0.97 -0.82 -0.52 -0.74 0.30 -4.91 1.56 -9.23 2.83 -4.32 1.27 -9.15 2.90 -10.79 3.72 -1.64 0.82 -8.19 6.62 -14.51 12.80 -10.20 10.05 -16.74 15.18 -26.94 21.58 -1.27 0.82 -1.93 1.64 -1.49 1.79 0.52 0.15 0.89 0.52 0.89 0.82 0 0.30 1.56 2.16 3.42 4.09 7.59 7.96 13.77 19.80 17.04 32.82 1.71 6.77 3.35 20.17 3.35 27.76 l0 3.87 53.95 0 53.95 0 0.15 -61.54z m-140.73 58.94 l4.17 -1.34 0.45 -27.98 c0.22 -15.40 0.30 -28.06 0.15 -28.20 -0.67 -0.74 -19.05 9.08 -21.43 11.46 -5.80 5.73 -7.81 13.25 -8.48 31.26 -0.52 14.51 -0.97 13.32 6.47 15.33 5.80 1.56 12.73 1.34 18.68 -0.52z m-38.77 -74.27 c0 -0.15 -1.56 -1.41 -3.50 -2.75 -2.01 -1.41 -8.63 -7.44 -14.81 -13.54 -12.20 -11.98 -13.40 -12.73 -25.53 -16.22 -3.94 -1.12 -7.74 -2.31 -8.56 -2.68 -3.27 -1.27 8.11 14.21 15.40 21.06 5.66 5.28 9.30 6.85 21.06 9.15 4.47 0.82 9.75 2.31 11.83 3.27 4.32 2.08 4.09 2.01 4.09 1.71z m28.50 -26.34 c5.95 -3.94 10.12 -8.93 12.58 -14.88 1.71 -4.24 1.71 -4.84 1.93 -36.47 l0.22 -32.22 39.59 -0.15 39.52 -0.22 1.04 -3.35 c1.56 -5.13 1.41 -16.67 -0.30 -21.21 l-1.49 -3.72 -39 -0.37 -39.07 -0.37 -0.37 -42.05 -0.37 -42.05 -5.21 -1.79 c-6.70 -2.23 -11.31 -2.31 -17.93 -0.22 -4.84 1.49 -5.36 1.86 -5.80 3.94 -0.22 1.27 -0.45 20.39 -0.45 42.42 l0 40.11 -39.22 0.15 -39.22 0.22 -1.41 4.47 c-1.71 5.43 -1.41 16.97 0.45 21.43 l1.19 2.75 39.07 0 39.14 0 0 46.21 0 46.21 5.06 -2.75 c2.75 -1.49 7.29 -4.24 10.05 -6.10z m-30.81 -13.62 c-0.67 -4.76 -1.71 -7.22 -10.05 -22.85 -1.64 -2.98 -3.13 -5.43 -3.35 -5.43 -0.97 0 -3.27 12.65 -3.27 18.23 0 8.19 2.53 13.47 10.49 21.88 l5.88 6.25 0.45 -6.62 c0.22 -3.65 0.15 -8.78 -0.15 -11.46z m68.91 10.49 c7.44 -8.04 9.60 -12.58 9.60 -20.17 0 -4.76 -1.93 -16.22 -3.05 -18.08 -0.22 -0.37 -1.34 1.12 -2.46 3.35 -1.12 2.16 -3.57 6.62 -5.51 9.90 -1.93 3.27 -3.94 7.59 -4.54 9.60 -1.27 4.09 -1.56 22.33 -0.45 21.88 0.37 -0.07 3.27 -3.05 6.40 -6.47z m-113.93 -33.27 c-5.36 -13.17 -6.47 -15.18 -10.49 -18.98 -4.24 -4.02 -16.07 -11.46 -15.55 -9.82 0.15 0.74 1.04 3.87 1.93 6.92 4.09 14.36 9.75 21.88 21.95 29.32 3.72 2.23 6.70 4.09 6.77 4.09 0.07 0.07 -2.01 -5.13 -4.61 -11.53z m156.73 5.88 c10.72 -6.77 15.48 -14.07 20.02 -30.44 l1.41 -5.36 -6.03 3.80 c-12.20 7.52 -14.29 10.20 -20.24 25.75 -2.23 5.88 -4.09 10.79 -4.09 11.01 0 0.37 4.32 -1.86 8.93 -4.76z m-138.79 -14.96 c2.98 -9.30 4.32 -15.85 3.65 -18.53 -0.45 -1.64 -0.82 -1.71 -6.70 -1.71 l-6.25 0 0 4.32 c0 5.51 1.56 12.58 4.17 19.27 1.12 2.98 2.16 5.28 2.23 5.21 0.07 -0.07 1.41 -3.94 2.90 -8.56z m121.15 2.75 c2.01 -5.21 4.24 -14.81 4.24 -18.46 0 -4.24 -0.37 -4.54 -6.77 -4.54 l-5.80 0 -0.52 2.68 c-0.30 1.79 0 4.69 1.12 8.78 2.83 10.87 4.91 17.49 5.36 16.97 0.22 -0.30 1.34 -2.75 2.38 -5.43z m-141.77 -91.39 c0.15 -2.83 -0.37 -5.88 -1.64 -10.05 -1.12 -3.35 -2.23 -8.04 -2.53 -10.49 l-0.60 -4.47 -1.71 4.47 c-0.89 2.46 -2.16 6.33 -2.75 8.56 -1.12 4.17 -1.49 14.29 -0.67 15.70 0.30 0.37 2.46 0.67 5.06 0.52 l4.61 -0.22 0.22 -4.02z m29.47 -2.01 l2.46 -6.03 -5.95 3.42 c-3.20 1.86 -7.29 4.69 -9 6.18 l-3.05 2.83 6.55 -0.22 6.55 -0.15 2.46 -6.03z m110.59 3.87 c-2.46 -2.38 -14.14 -9.82 -14.14 -9 0 0.22 0.82 2.31 1.79 4.69 0.89 2.31 1.93 4.84 2.16 5.58 0.37 1.04 1.41 1.27 6.62 1.27 l6.18 0 -2.60 -2.53z m27.24 0.60 c0.97 -3.87 -0.30 -13.17 -2.68 -20.02 -3.27 -9.30 -3.65 -9.75 -3.72 -4.47 0 2.60 -0.74 6.85 -1.86 10.27 -2.38 7.59 -2.90 10.42 -2.31 13.54 l0.52 2.60 4.76 0 c4.54 0 4.84 -0.07 5.28 -1.93z m-20.76 -17.56 c-0.67 -8.04 -4.32 -14.81 -12.20 -22.92 -4.47 -4.61 -6.03 -5.80 -5.43 -4.32 0.37 1.12 1.34 5.43 2.23 9.53 0.82 4.09 1.93 8.41 2.53 9.53 0.97 1.86 12.20 13.54 13.02 13.54 0.15 0 0.07 -2.46 -0.15 -5.36z m-129.04 -1.27 c5.51 -5.28 7 -8.11 8.71 -17.04 0.74 -4.02 1.64 -7.89 1.93 -8.71 0.30 -0.82 -2.23 1.19 -5.58 4.47 -7.81 7.67 -11.24 14.07 -11.83 22.10 -0.45 6.33 -0.74 6.33 6.77 -0.82z"/>
 </g>
 <g fill="#8c613f">
  <path d="M358.70 392.93 l0 -61.84 -6.62 4.47 c-6.10 4.17 -6.70 4.39 -7.74 3.20 -1.86 -2.16 -7.22 -11.31 -7.22 -12.35 0 -0.60 2.60 -2.75 5.80 -4.76 39.81 -25.75 51.20 -32.89 51.94 -32.89 0.45 0 1.56 3.05 2.53 7.29 5.88 25.67 15.70 44.95 30.07 59.31 14.66 14.59 28.06 22.03 45.77 25.30 8.33 1.49 10.64 1.49 10.34 -0.15 -0.37 -2.31 -9.15 -6.03 -18.01 -7.67 -12.06 -2.31 -15.40 -3.80 -21.58 -9.67 -2.90 -2.83 -7.22 -7.74 -9.53 -10.94 -4.54 -6.33 -11.46 -18.68 -10.79 -19.35 0.22 -0.22 1.56 0.52 2.90 1.56 3.27 2.46 6.77 3.87 15.55 6.40 12.13 3.50 13.40 4.24 25.23 15.93 10.12 10.05 18.46 16.97 21.43 17.86 1.27 0.45 6.18 -2.08 24.71 -12.73 3.72 -2.08 8.33 -5.58 11.31 -8.56 l5.06 -4.99 0 7.07 c0 4.84 -0.37 7.74 -1.12 9.23 -1.27 2.46 -8.41 7.74 -14.51 10.79 -12.65 6.25 -25.08 17.49 -31.03 27.98 -6.10 10.79 -9.60 24.63 -10.42 41.82 -0.45 8.78 -0.52 9.45 -1.93 9.45 -1.41 0 -1.49 -0.30 -0.97 -9.82 1.27 -26.05 7.07 -42.57 19.72 -55.96 5.88 -6.18 11.01 -9.90 21.58 -15.78 10.87 -6.03 15.70 -10.27 15.70 -13.77 l0 -2.31 -3.50 2.68 c-2.01 1.49 -5.73 3.94 -8.41 5.43 -2.68 1.49 -8.93 4.99 -13.92 7.81 -6.40 3.57 -9.90 5.06 -11.68 5.06 -2.53 0 -2.60 0.07 -2.83 3.20 -0.22 3.13 -0.22 3.13 -3.35 3.35 -3.94 0.30 -17.79 -2.31 -24.48 -4.61 -4.99 -1.64 -12.95 -5.36 -13.69 -6.33 -0.22 -0.30 -1.27 -0.89 -2.38 -1.34 -1.19 -0.52 -2.08 -1.27 -2.08 -1.71 0 -0.37 -0.52 -0.74 -1.12 -0.74 -0.60 0 -1.12 -0.52 -1.12 -1.12 0 -0.67 -0.67 -1.12 -1.56 -1.12 -0.89 0 -1.71 -0.60 -1.93 -1.49 -0.22 -0.82 -0.97 -1.49 -1.64 -1.49 -1.79 0 -3.05 -1.49 -3.05 -3.50 0 -1.41 -0.37 -1.71 -2.08 -1.71 -2.53 0 -6.10 -3.42 -6.10 -5.80 0 -1.12 -0.45 -1.64 -1.49 -1.64 -0.82 0 -1.79 -0.60 -2.01 -1.27 -0.30 -0.74 -0.89 -1.64 -1.49 -1.93 -0.52 -0.30 -0.97 -0.89 -0.97 -1.27 0 -0.37 -0.74 -1.49 -1.71 -2.53 -0.97 -1.04 -2.38 -3.13 -3.20 -4.69 -0.74 -1.56 -1.64 -2.98 -1.86 -3.20 -1.19 -0.89 -6.03 -11.61 -8.48 -18.60 -1.41 -4.24 -2.75 -7.89 -2.90 -7.96 -0.15 -0.15 -4.69 2.60 -10.05 6.10 l-9.75 6.33 0 56.19 0 56.19 25.15 0.22 c13.77 0.07 29.99 0.07 36.09 0 l10.94 -0.15 0 7.29 c0 4.02 0.22 8.41 0.45 9.67 l0.52 2.31 -46.29 0 -46.21 0 0 -61.77z m118.55 -21.95 c-0.74 -0.97 -1.64 -1.86 -2.08 -1.86 -0.37 0 -5.21 -4.47 -10.79 -9.97 -5.51 -5.43 -11.39 -10.64 -13.10 -11.46 -1.64 -0.82 -6.18 -2.46 -10.05 -3.57 -3.87 -1.04 -7.59 -2.31 -8.26 -2.68 -2.01 -0.97 -1.64 -0.15 2.16 5.66 4.76 7.07 13.47 16.07 18.01 18.60 2.31 1.19 7.67 2.83 13.92 4.17 5.58 1.19 10.34 2.38 10.57 2.60 1.04 1.04 0.82 0.15 -0.37 -1.49z"/>
  <path d="M504.41 453.21 c-10.64 -2.31 -9.82 -0.67 -9.30 -18.16 0.30 -11.53 0.74 -16.30 1.93 -20.69 2.90 -11.16 5.28 -13.62 20.76 -21.06 6.33 -3.05 11.31 -5.95 11.31 -6.55 0 -0.52 -1.34 -1.56 -2.98 -2.31 -1.64 -0.74 -2.98 -1.56 -2.98 -1.86 0 -0.30 1.93 -1.49 4.32 -2.53 7.74 -3.57 17.41 -11.09 29.17 -22.55 6.33 -6.18 12.87 -11.98 14.51 -12.80 1.64 -0.82 6.70 -2.53 11.16 -3.87 9 -2.60 13.47 -4.39 16.74 -6.70 1.27 -0.89 2.23 -1.34 2.23 -1.04 0 0.89 -4.99 10.42 -7.74 14.66 -6.55 10.20 -15.11 18.83 -21.58 21.80 -2.08 0.97 -6.92 2.23 -10.72 2.90 -8.19 1.41 -11.53 2.53 -15.85 5.21 -1.79 1.12 -3.42 2.16 -3.57 2.31 -0.15 0.15 0.15 0.74 0.67 1.41 1.93 2.31 12.28 0.82 22.25 -3.13 7.81 -3.05 15.26 -7.59 23.07 -13.77 7 -5.66 7.14 -5.73 7.52 -3.80 0.37 1.79 0.45 1.86 1.41 0.74 0.52 -0.74 2.08 -1.27 3.42 -1.27 2.16 0 3.42 0.97 9.97 7.89 l7.52 7.96 0 24.78 0 24.86 -21.95 0 -21.95 0 0.15 -21.73 0.22 -21.73 4.47 -3.35 c2.46 -1.86 7.14 -5.95 10.42 -9.08 4.91 -4.69 5.58 -5.66 3.94 -5.36 -1.04 0.22 -2.08 0.97 -2.31 1.79 -0.22 0.74 -0.97 1.64 -1.79 1.93 -0.74 0.22 -1.64 0.89 -1.93 1.49 -0.30 0.52 -1.12 0.97 -1.64 0.97 -0.60 0 -1.12 0.37 -1.12 0.74 0 0.45 -0.52 0.74 -1.12 0.74 -0.60 0 -1.12 0.37 -1.12 0.74 0 0.45 -0.52 0.74 -1.12 0.74 -0.60 0 -1.12 0.30 -1.12 0.60 0 0.89 -4.99 3.13 -7.07 3.13 -1.12 0 -1.86 0.45 -1.86 1.04 0 2.08 -13.32 6.10 -22.62 6.85 -7 0.60 -9.38 -0.52 -9.38 -4.54 0 -1.41 0.30 -2.60 0.67 -2.60 0.37 0 0.82 -0.52 1.12 -1.12 0.22 -0.74 -0.52 -0.45 -2.38 0.74 -1.49 1.04 -3.65 2.46 -4.76 3.20 -1.19 0.67 -2.08 1.49 -2.08 1.79 0 0.30 1.71 2.46 3.80 4.84 7.37 8.41 12.35 17.34 15.85 28.50 3.65 11.46 5.51 29.77 3.05 29.77 -1.12 0 -1.56 -1.71 -2.23 -10.34 -1.34 -16 -8.86 -33.79 -18.83 -44.73 l-3.05 -3.35 -0.15 10.64 c-0.07 5.80 -0.22 11.24 -0.30 12.06 -0.07 0.82 -0.22 10.34 -0.30 21.06 l-0.07 19.65 -4.24 1.27 c-5.66 1.56 -10.64 2.68 -12.50 2.60 -0.82 0 -4.39 -0.67 -7.96 -1.41z m53.80 -83.35 c10.87 -2.08 14.73 -3.94 21.21 -10.34 5.21 -5.13 15.63 -19.27 13.62 -18.53 -0.60 0.22 -5.36 1.79 -10.72 3.42 -5.58 1.79 -10.64 3.87 -11.91 4.91 -1.19 1.04 -2.83 1.86 -3.50 1.93 -0.74 0 -1.34 0.60 -1.34 1.27 0 1.19 -13.84 15.85 -14.96 15.85 -0.22 0 -1.93 1.41 -3.72 3.05 l-3.27 3.05 3.05 -1.49 c1.64 -0.82 6.85 -2.23 11.53 -3.13z"/>
  <path d="M552.93 453.21 c0 -0.97 0.52 -1.49 1.49 -1.49 0.97 0 1.49 0.52 1.49 1.49 0 0.97 -0.52 1.49 -1.49 1.49 -0.97 0 -1.49 -0.52 -1.49 -1.49z"/>
  <path d="M574.14 445.17 l0 -9.45 35.94 -0.22 c27.91 -0.15 35.87 -0.37 35.87 -1.12 0.07 -1.79 0.07 -55 0 -83.20 l0 -28.80 -9.38 -6.03 c-5.21 -3.35 -9.45 -6.03 -9.60 -5.88 -0.07 0.15 -1.27 3.57 -2.68 7.59 -1.34 4.02 -2.90 7.81 -3.42 8.33 -0.52 0.52 -0.97 1.49 -0.97 2.08 0 1.56 -3.13 7.89 -3.87 7.89 -0.30 0 -0.60 0.45 -0.60 1.04 0 0.60 -0.45 1.56 -0.97 2.08 -0.52 0.52 -1.34 1.86 -1.79 3.05 -0.52 1.12 -1.27 2.01 -1.71 2.01 -0.37 0 -0.74 0.52 -0.74 1.12 0 0.60 -0.30 1.12 -0.67 1.12 -0.37 0 -0.82 0.67 -1.04 1.49 -0.22 0.82 -0.89 1.49 -1.56 1.49 -0.67 0 -1.19 0.60 -1.19 1.34 0 2.08 -2.53 4.02 -4.84 3.72 l-1.93 -0.22 3.50 -4.09 c11.09 -12.87 17.86 -27.24 23.67 -50.01 l3.13 -12.43 4.09 2.46 c2.23 1.34 14.66 9.30 27.61 17.79 12.95 8.41 24.26 15.70 25.08 16.15 0.89 0.45 1.56 1.12 1.56 1.49 0 1.27 -7.67 13.40 -8.48 13.40 -0.45 0 -3.50 -1.79 -6.77 -4.02 -3.27 -2.23 -6.18 -3.87 -6.47 -3.65 -0.37 0.15 -0.60 27.91 -0.60 61.69 l0 61.32 -45.54 0 -45.62 0 0 -9.53z"/>
  <path d="M407.07 400.97 l0 -24.78 7.59 -7.59 c10.12 -10.12 10.34 -10.12 18.90 -1.12 3.35 3.57 8.48 8.19 11.39 10.20 l5.21 3.72 0 22.18 0.07 22.10 -21.58 0 -21.58 0 0 -24.71z"/>
  <path d="M495.33 360.78 c-0.22 -0.97 -0.45 -22.25 -0.45 -47.26 l0 -45.62 -39.14 0 -39.07 0 -1.19 -2.75 c-1.93 -4.54 -2.23 -20.24 -0.45 -25.90 l1.41 -4.47 39.22 -0.22 39.22 -0.15 0 -40.11 c0 -22.03 0.22 -41.15 0.45 -42.42 0.45 -2.08 0.97 -2.46 5.80 -3.94 7.22 -2.31 15.33 -2.23 22.40 0.22 l5.21 1.79 0.37 42.05 0.37 42.05 39.07 0.37 39 0.37 1.49 3.72 c1.86 4.69 2.01 20.32 0.30 25.67 l-1.04 3.35 -39.59 0.22 -39.59 0.15 0 30.36 c0 24.56 -0.22 31.18 -1.12 34.60 -2.98 11.31 -7.37 15.63 -27.98 27.24 l-4.24 2.31 -0.45 -1.64z"/>
  <path d="M482.60 359.29 c-1.71 -1.93 -1.71 -6.55 0 -6.55 1.12 0 2.16 3.94 1.71 6.70 l-0.22 1.64 -1.49 -1.79z"/>
  <path d="M540.50 356.47 c0.30 -2.23 0.52 -5.51 0.52 -7.22 0 -2.68 0.22 -3.20 1.49 -3.20 1.27 0 1.49 0.52 1.49 3.13 0 2.90 0.07 2.98 1.34 1.86 0.74 -0.74 2.08 -1.27 2.98 -1.27 1.27 0 1.64 -0.45 1.64 -1.93 0 -1.19 1.04 -3.13 2.60 -4.84 7.22 -8.04 8.63 -17.56 4.76 -31.48 -0.74 -2.60 -0.89 -2.83 -1.56 -1.49 -0.45 0.74 -2.60 4.54 -4.84 8.33 -4.39 7.44 -6.92 13.69 -6.92 17.27 0 1.79 -0.30 2.23 -1.56 2.23 -1.49 0 -1.56 -0.30 -1.19 -4.39 0.45 -5.06 2.53 -10.05 7.89 -18.98 2.08 -3.35 4.54 -8.56 5.43 -11.46 0.97 -2.90 1.93 -5.36 2.23 -5.36 0.22 0 1.56 4.47 2.90 9.90 2.01 8.04 2.46 11.31 2.46 18.01 0.07 7.29 -0.15 8.63 -1.93 12.35 -1.86 4.17 -9.23 12.73 -16.52 19.35 l-3.65 3.27 0.45 -4.09z"/>
  <path d="M473.38 350.07 c-12.35 -13.02 -13.92 -22.10 -7.74 -45.10 1.04 -4.02 2.16 -7.29 2.46 -7.29 0.22 0 0.89 1.56 1.34 3.57 0.52 1.93 2.60 6.55 4.61 10.20 7.59 13.62 8.93 16.82 9.75 23.59 0.89 6.92 0.45 11.76 -1.12 11.76 -0.67 0 -1.12 -1.86 -1.41 -6.55 -0.52 -8.04 -2.16 -12.95 -7.44 -21.88 -2.23 -3.80 -4.39 -7.52 -4.76 -8.33 -1.04 -1.86 -1.41 -1.04 -2.83 6.18 -2.68 12.95 -0.52 20.39 8.63 30.14 4.54 4.84 5.21 5.95 4.99 7.96 l-0.22 2.38 -6.25 -6.62z"/>
  <path d="M436.84 325.28 c-14.96 -8.71 -19.42 -13.10 -23.74 -23.44 -2.46 -5.80 -5.58 -17.12 -6.40 -23.14 l-0.52 -3.72 2.83 2.75 c1.64 1.49 6.25 4.84 10.34 7.52 7.44 4.76 11.98 9 13.99 12.95 0.60 1.12 3.20 7.29 5.73 13.62 2.60 6.33 5.51 13.17 6.47 15.11 0.97 2.01 1.71 3.80 1.56 3.87 -0.15 0.15 -4.76 -2.31 -10.27 -5.51z m-0.67 -11.61 c-6.92 -17.27 -8.63 -19.35 -22.55 -27.83 l-2.75 -1.64 1.56 5.43 c2.16 7.74 4.91 14.29 7.37 17.71 1.19 1.64 2.16 3.65 2.16 4.47 0 1.04 0.52 1.49 1.56 1.49 0.82 0 2.75 0.97 4.24 2.16 2.46 2.01 11.46 7.44 11.83 7.14 0.07 0 -1.41 -4.09 -3.42 -8.93z"/>
  <path d="M577.49 330.49 c0 -0.45 1.12 -3.13 2.53 -5.88 1.34 -2.75 4.09 -9.15 6.03 -14.29 5.66 -15.11 8.41 -18.68 19.27 -25.30 3.35 -2.01 7.67 -5.06 9.60 -6.77 1.93 -1.71 3.72 -2.98 3.87 -2.83 0.37 0.45 -4.54 19.42 -6.25 24.11 -4.24 11.24 -9.67 17.27 -22.10 24.33 -4.09 2.31 -8.71 4.91 -10.20 5.80 -1.56 0.97 -2.75 1.27 -2.75 0.82z m17.12 -13.54 c2.23 -1.49 4.76 -3.42 5.51 -4.32 0.82 -0.82 1.86 -1.56 2.46 -1.56 0.52 0 0.97 -0.30 0.97 -0.67 0 -0.37 0.97 -2.31 2.23 -4.32 2.08 -3.42 7.44 -18.16 7.44 -20.61 0 -0.89 -1.12 -0.45 -4.61 1.86 -10.79 6.92 -12.06 8.04 -14.96 13.99 -2.38 4.91 -8.71 20.47 -8.71 21.43 0 0.45 4.02 -2.01 9.67 -5.80z"/>
  <path d="M450.98 318.88 c-5.51 -12.28 -8.11 -21.13 -8.19 -27.31 0 -2.31 0.30 -2.83 1.49 -2.83 1.19 0 1.49 0.52 1.49 2.46 0 3.05 2.38 12.43 4.24 16.82 l1.41 3.20 2.90 -9.15 c2.46 -7.52 2.98 -10.27 2.98 -14.96 -0.07 -4.99 0.15 -5.80 1.19 -5.80 3.20 0 2.60 10.42 -1.34 22.62 -1.41 4.39 -2.98 10.42 -3.50 13.40 l-0.97 5.28 -1.71 -3.72z"/>
  <path d="M571.24 320.67 c-0.22 -0.97 -0.52 -3.20 -0.74 -4.91 -0.22 -1.64 -1.64 -6.85 -3.13 -11.53 -3.87 -12.28 -4.39 -22.92 -1.19 -22.92 1.12 0 1.27 0.89 1.27 6.55 0 5.36 0.45 7.81 2.60 14.29 1.41 4.32 2.68 7.96 2.75 8.11 0.45 0.67 1.12 -0.74 3.35 -7.07 2.01 -5.66 2.31 -7.74 2.38 -14.21 0.07 -6.62 0.22 -7.67 1.27 -7.67 1.71 0 2.16 1.56 2.16 6.77 0 6.55 -1.93 14.81 -5.73 24.41 -3.87 9.75 -4.47 10.72 -4.99 8.19z"/>
  <path d="M442.79 283.91 c0 -2.08 0.30 -2.60 1.49 -2.60 1.19 0 1.49 0.52 1.49 2.60 0 2.08 -0.30 2.60 -1.49 2.60 -1.19 0 -1.49 -0.52 -1.49 -2.60z"/>
  <path d="M421.58 220.87 c-1.71 -5.58 -0.74 -16.15 2.31 -25.30 2.83 -8.63 13.02 -27.61 14.14 -26.42 0.15 0.15 -0.67 2.68 -1.93 5.66 -2.90 7 -4.69 15.85 -4.02 19.80 0.22 1.64 1.27 5.43 2.31 8.48 1.41 4.39 1.71 6.77 1.56 11.91 -0.22 5.36 -0.45 6.40 -1.49 6.62 -1.19 0.22 -1.34 -0.45 -1.34 -5.66 0 -4.32 -0.52 -7.44 -1.86 -11.61 -1.04 -3.13 -1.86 -7.44 -1.86 -9.60 l-0.07 -3.87 -1.79 4.39 c-2.53 5.95 -4.32 15.93 -3.65 20.17 l0.45 3.35 3.27 0 c2.75 0 3.27 0.22 3.27 1.49 0 1.34 -0.52 1.49 -4.47 1.49 -2.98 0 -4.61 -0.30 -4.84 -0.89z"/>
  <path d="M444.06 219.46 c2.01 -3.50 6.18 -6.92 13.02 -10.79 4.69 -2.68 8.19 -5.51 14.36 -11.76 4.47 -4.54 7.89 -7.74 7.67 -7.14 -0.22 0.60 -2.60 4.69 -5.21 9 -4.02 6.62 -8.48 15.85 -10.49 21.73 -0.37 0.97 -1.34 1.27 -4.61 1.27 -3.57 0 -4.09 -0.15 -4.09 -1.49 0 -1.27 0.52 -1.49 2.90 -1.49 2.75 0 2.90 -0.15 4.39 -3.87 0.82 -2.16 1.71 -4.54 2.01 -5.28 0.67 -1.64 -10.05 4.47 -13.02 7.37 l-1.86 1.79 2.08 0 c1.49 0 2.01 0.37 2.01 1.49 0 1.34 -0.52 1.49 -5.28 1.49 l-5.21 0 1.34 -2.31z"/>
  <path d="M561.34 220.50 c-2.38 -6.85 -7 -15.93 -12.20 -24.04 -5.06 -7.81 -4.54 -7.81 3.87 0.52 6.03 5.88 10.34 9.38 14.81 11.98 5.88 3.42 13.40 10.20 13.40 12.06 0 1.93 -3.65 0.52 -6.70 -2.68 -2.75 -2.83 -12.28 -9.23 -13.69 -9.23 -0.22 0 0.60 2.38 1.86 5.28 1.19 2.98 2.16 5.80 2.16 6.33 0 1.49 -2.98 1.27 -3.50 -0.22z"/>
  <path d="M588.20 219.09 c-0.74 -4.17 0.15 -11.24 2.31 -18.08 2.60 -7.96 2.31 -13.99 -0.89 -23.14 -1.27 -3.50 -2.53 -7 -2.83 -7.81 -1.19 -3.57 3.27 3.05 7.22 10.64 5.13 9.82 8.71 19.87 9.30 26.05 0.37 4.24 0.30 4.61 -1.04 4.61 -1.27 0 -1.56 -0.67 -1.93 -3.57 -0.22 -2.01 -1.34 -6.40 -2.46 -9.82 l-2.08 -6.25 -0.89 4.76 c-0.52 2.68 -1.64 7.14 -2.46 10.05 -0.89 2.83 -1.56 6.77 -1.56 8.71 l0 3.57 4.84 0 4.84 0 0 -2.60 c0 -2.08 0.30 -2.60 1.49 -2.60 1.27 0 1.49 0.52 1.49 2.90 0 5.21 -0.15 5.28 -7.89 5.28 l-6.92 0 -0.52 -2.68z"/>
  <path d="M442.20 201.60 c0.22 -8.56 0.45 -9.60 2.68 -14.36 1.64 -3.57 4.09 -6.85 8.19 -11.09 7.14 -7.44 21.88 -20.76 22.33 -20.24 0.22 0.15 -0.97 2.08 -2.60 4.24 -6.62 8.71 -8.63 13.17 -10.64 23.81 -0.74 3.94 -2.08 8.48 -2.90 10.12 -1.34 2.68 -14.51 15.70 -16.60 16.45 -0.52 0.15 -0.67 -2.68 -0.45 -8.93z m9.60 -4.17 c5.36 -5.58 5.51 -5.95 7.59 -15.78 l1.79 -8.26 -2.01 1.86 c-1.04 1.04 -2.31 1.86 -2.83 1.86 -0.52 0 -0.89 0.37 -0.89 0.82 0 0.45 -1.41 2.38 -3.05 4.24 -4.09 4.61 -6.70 10.57 -7.22 16.45 -0.37 4.47 -0.30 4.69 1.04 3.94 0.82 -0.45 3.27 -2.68 5.58 -5.13z"/>
  <path d="M573.54 203.39 c-4.02 -3.94 -7.81 -8.11 -8.41 -9.30 -0.60 -1.12 -1.79 -5.43 -2.60 -9.60 -2.31 -11.46 -3.80 -14.59 -13.32 -27.68 -1.04 -1.41 -0.97 -1.49 0.15 -0.82 2.60 1.41 13.99 11.68 20.47 18.38 5.06 5.21 7.37 8.33 9.60 12.73 2.83 5.80 2.90 6.03 2.90 14.44 0 5.06 -0.30 8.71 -0.74 8.86 -0.37 0.07 -4.02 -3.05 -8.04 -7z m5.43 -7.96 c-1.12 -5.43 -5.28 -12.06 -11.01 -17.71 -2.60 -2.53 -4.61 -4.09 -4.39 -3.42 0.30 0.74 1.04 4.17 1.64 7.67 1.34 7.07 2.68 10.79 4.39 12.28 0.67 0.52 1.19 1.34 1.19 1.79 0 0.45 0.89 1.41 2.08 2.08 1.12 0.67 3.05 2.31 4.24 3.57 l2.23 2.38 0.22 -2.31 c0.15 -1.34 -0.15 -4.09 -0.60 -6.33z"/>
 </g>
 <g fill="#f1f1ee">
  <path d="M448.52 454.18 c-0.30 -0.22 -0.52 -4.02 -0.52 -8.33 l0 -7.89 -15.48 -0.07 c-8.48 -0.07 -24.71 -0.15 -36.02 -0.15 l-20.69 -0.15 0 -58.42 0 -58.42 10.94 -7.14 c6.10 -3.94 11.39 -7.29 11.83 -7.52 0.52 -0.15 2.08 3.42 3.94 8.86 7.22 21.13 18.16 36.61 35.27 50.01 11.53 9 22.62 13.77 38.33 16.45 8.86 1.56 9.15 2.08 4.91 7.22 -12.50 14.96 -19.42 33.93 -20.84 57.38 l-0.52 8.71 -5.36 0 c-2.90 0 -5.58 -0.22 -5.80 -0.52z m-0.60 -50.60 l0 -19.94 -5.21 -3.72 c-2.90 -2.01 -8.11 -6.70 -11.53 -10.34 l-6.33 -6.70 -7.74 7.74 -7.81 7.81 0 22.47 0 22.55 19.35 0 19.35 0 -0.07 -19.87z"/>
  <path d="M566.03 446.66 c-1.34 -22.40 -7.22 -39.67 -18.68 -54.85 -2.68 -3.57 -4.84 -7 -4.84 -7.67 0 -1.04 0.89 -1.27 4.69 -1.41 9.67 -0.30 24.56 -6.25 36.24 -14.44 7.59 -5.28 21.13 -19.05 25.90 -26.34 5.21 -7.89 9.97 -17.71 13.25 -27.61 1.49 -4.47 2.83 -8.26 2.98 -8.41 0.15 -0.15 5.28 2.98 11.46 7 l11.16 7.22 0 10.94 c0 5.95 0.07 32.30 0.15 58.49 l0.07 47.63 -1.79 0.22 c-0.97 0.07 -17.19 0.22 -36.02 0.37 l-34.16 0.15 -0.07 8.19 0 8.19 -4.91 0.22 -4.91 0.22 -0.52 -8.11z m49.41 -45.84 l0 -22.55 -7.52 -7.89 -7.44 -7.96 -7.59 7.74 c-4.17 4.17 -9.60 9.15 -12.06 10.94 l-4.47 3.35 -0.22 19.50 -0.15 19.50 19.72 0 19.72 0 0 -22.62z"/>
 </g>
 <g fill="#daa767">
  <path d="M457.90 445.02 c1.04 -20.32 6.40 -38.03 15.40 -51.35 4.02 -5.88 8.19 -10.72 9.75 -11.31 2.31 -0.89 1.64 -2.53 -2.08 -4.91 -4.32 -2.68 -6.25 -3.27 -17.41 -5.66 -4.76 -0.97 -10.12 -2.53 -11.91 -3.42 -4.09 -2.16 -11.68 -9.38 -16.30 -15.63 -3.35 -4.61 -9.60 -15.18 -10.64 -18.08 -0.45 -1.19 -0.30 -1.19 1.71 0.22 3.27 2.31 9.23 4.76 17.04 7 3.87 1.12 8.41 2.75 10.05 3.57 1.71 0.89 8.11 6.47 14.29 12.58 6.18 6.03 13.62 12.50 16.45 14.44 l5.21 3.42 11.46 -6.33 c16.52 -9.08 19.05 -10.79 23.89 -15.40 l4.32 -4.24 0 7 0 7.07 -3.20 3.13 c-1.79 1.71 -7.44 5.43 -12.50 8.26 -10.57 5.88 -15.70 9.60 -21.58 15.78 -12.43 13.17 -18.31 29.47 -19.72 54.85 l-0.52 8.71 -7.07 0 -7.07 0 0.45 -9.67z"/>
  <path d="M553.45 454.18 c-0.30 -0.22 -0.52 -3.87 -0.52 -7.96 0 -17.79 -5.36 -36.54 -14.07 -49.04 -4.02 -5.80 -9.97 -12.06 -12.65 -13.25 l-2.68 -1.12 4.61 -2.60 c10.05 -5.51 17.93 -11.61 28.13 -21.73 5.73 -5.73 11.61 -11.16 13.02 -12.06 1.41 -0.97 7.14 -3.13 12.65 -4.84 5.51 -1.71 11.83 -4.09 13.99 -5.21 2.08 -1.12 3.87 -1.79 3.87 -1.41 0 3.42 -11.31 20.09 -18.16 26.79 -6.55 6.40 -10.34 8.26 -21.28 10.34 -8.56 1.64 -15.55 4.47 -18.23 7.44 -1.12 1.27 -1.04 1.41 1.19 2.98 3.35 2.46 10.72 12.65 14.51 20.32 6.47 12.87 9.60 25.53 10.49 42.79 l0.45 9.08 -7.44 0 c-4.09 0 -7.67 -0.22 -7.89 -0.52z"/>
  <path d="M448.30 446.14 c0 -4.47 0.07 -6.25 0.22 -3.87 0.15 2.38 0.15 6.03 0 8.19 -0.15 2.16 -0.22 0.22 -0.22 -4.32z"/>
  <path d="M576.30 447.26 c0 -3.87 0.07 -5.51 0.22 -3.50 0.15 1.93 0.15 5.06 0 7.07 -0.15 1.93 -0.22 0.30 -0.22 -3.57z"/>
  <path d="M430.29 437.80 c2.75 -0.15 7.44 -0.15 10.42 0 2.98 0.07 0.74 0.22 -4.99 0.22 -5.73 0 -8.19 -0.07 -5.43 -0.22z"/>
  <path d="M375.96 379.46 c-0.15 -55 -0.07 -58.57 1.19 -59.53 1.12 -0.89 1.19 -0.89 0.37 0.15 -0.74 0.89 -0.97 14.36 -1.19 59.53 l-0.15 58.34 -0.22 -58.49z"/>
  <path d="M648.41 432 c0 -2.01 0.15 -2.83 0.30 -1.64 0.15 1.12 0.15 2.75 0 3.72 -0.15 0.89 -0.30 0 -0.30 -2.08z"/>
  <path d="M448.30 403.72 c0 -11.01 0.15 -15.70 0.22 -10.27 0.15 5.36 0.15 14.44 0 20.09 -0.07 5.66 -0.22 1.27 -0.22 -9.82z"/>
  <path d="M648.41 381.02 c0 -2.23 0.15 -3.20 0.30 -2.01 0.15 1.12 0.15 2.90 0 4.09 -0.15 1.12 -0.30 0.15 -0.30 -2.08z"/>
  <path d="M417.27 369.86 c7.44 -7.59 7.67 -7.74 8.93 -6.33 1.27 1.34 1.27 1.34 0 0.37 -1.19 -0.89 -2.08 -0.30 -8.93 6.40 l-7.59 7.37 7.59 -7.81z"/>
  <path d="M432.74 371.20 l-5.21 -5.43 5.43 5.21 c2.90 2.83 5.36 5.28 5.36 5.36 0 0.60 -0.82 -0.15 -5.58 -5.13z"/>
  <path d="M586.42 376.33 c0 -0.15 1.12 -1.19 2.46 -2.46 l2.38 -2.16 -2.16 2.46 c-2.08 2.23 -2.68 2.75 -2.68 2.16z"/>
  <path d="M592.37 370.38 c0 -0.15 1.12 -1.19 2.46 -2.46 l2.38 -2.16 -2.16 2.46 c-2.08 2.23 -2.68 2.75 -2.68 2.16z"/>
  <path d="M474.87 351.11 c-4.32 -4.76 -8.41 -10.12 -9.60 -12.50 -1.86 -3.80 -2.01 -4.76 -2.01 -13.40 0 -7.81 0.37 -10.64 2.16 -17.64 1.12 -4.61 2.31 -8.41 2.60 -8.41 0.22 0 1.04 1.93 1.71 4.32 0.74 2.31 3.35 7.67 5.88 11.91 7.14 12.06 7.59 13.77 7.96 30.14 0.22 8.56 0 13.92 -0.37 13.92 -0.45 0 -4.17 -3.72 -8.33 -8.33z"/>
  <path d="M541.25 345.15 c0.30 -16 0.82 -17.79 7.89 -29.69 2.46 -4.24 5.06 -9.38 5.73 -11.46 0.67 -2.01 1.49 -4.02 1.79 -4.32 0.22 -0.30 1.49 3.35 2.68 8.19 1.79 7.22 2.16 10.34 2.16 17.71 0 8.71 -0.07 9.08 -2.46 13.40 -2.46 4.61 -11.98 15.48 -15.85 18.23 l-2.16 1.56 0.22 -13.62z"/>
  <path d="M439.81 326.55 c-3.50 -2.08 -8.11 -4.84 -10.34 -6.10 -11.31 -6.55 -16.89 -16.37 -21.66 -38.03 l-1.34 -6.40 2.83 2.60 c1.56 1.41 6.18 4.69 10.20 7.37 10.94 7.07 12.58 9.38 19.42 26.64 2.01 5.13 4.54 11.01 5.66 13.25 1.12 2.16 1.93 4.02 1.79 4.17 -0.15 0.15 -3.05 -1.49 -6.55 -3.50z"/>
  <path d="M581.73 322.08 c1.86 -4.24 4.32 -10.27 5.51 -13.40 4.76 -13.02 6.62 -15.40 17.34 -22.40 4.61 -3.13 9.67 -6.70 11.24 -8.04 2.23 -2.01 2.75 -2.16 2.38 -1.04 -0.22 0.82 -1.27 4.91 -2.31 9.08 -2.60 10.05 -5.95 19.20 -8.48 23 -2.23 3.35 -6.25 7.07 -11.31 10.49 -3.35 2.23 -16.82 9.90 -17.41 9.90 -0.22 0 1.19 -3.42 3.05 -7.59z"/>
  <path d="M451.42 318.88 c-6.55 -14.66 -9.53 -27.16 -8.26 -34.68 l0.52 -2.98 7.89 0.22 7.96 0.22 -0.07 7.07 c-0.07 6.03 -0.52 8.26 -2.90 15.63 -1.56 4.69 -3.05 10.57 -3.35 13.02 l-0.45 4.47 -1.34 -2.98z"/>
  <path d="M571.24 317.32 c-0.22 -2.23 -1.71 -7.89 -3.20 -12.43 -2.38 -7.29 -2.75 -9.23 -2.75 -15.78 l-0.07 -7.44 7.81 0 7.81 0 -0.07 8.19 c0 5.13 -0.45 9.60 -1.19 11.91 -1.27 4.17 -7.29 19.72 -7.59 19.72 -0.15 0 -0.45 -1.86 -0.74 -4.17z"/>
  <path d="M422.25 220.87 c-0.22 -0.37 -0.60 -2.83 -0.82 -5.58 -0.52 -6.62 1.34 -16.30 4.61 -24.11 2.53 -6.03 10.05 -20.24 10.49 -19.80 0.15 0.15 -0.82 2.90 -2.08 6.18 -3.27 8.48 -3.65 16.45 -1.12 24.19 1.79 5.51 2.23 8.71 2.08 16.52 l-0.07 3.57 -6.40 -0.22 c-3.50 -0.15 -6.55 -0.45 -6.70 -0.74z"/>
  <path d="M443.53 220.95 c0 -0.22 1.41 -2.01 3.05 -3.94 1.86 -2.08 5.88 -5.13 10.27 -7.67 5.51 -3.13 8.78 -5.80 14.14 -11.31 7.14 -7.29 7.14 -7.22 0.67 3.35 -1.79 2.90 -4.54 8.48 -6.18 12.50 l-2.90 7.14 -2.98 0.15 c-7.59 0.30 -16.07 0.22 -16.07 -0.22z"/>
  <path d="M561.71 219.76 c-3.20 -7.74 -7.67 -16.45 -11.31 -22.18 l-4.32 -6.70 7.37 7.22 c4.76 4.69 9.38 8.41 13.25 10.64 6.03 3.50 13.77 10.27 13.77 12.06 0 0.74 -2.16 0.97 -8.93 0.97 l-8.93 0 -0.89 -2.01z"/>
  <path d="M589.17 221.32 c-1.34 -1.34 -0.45 -12.06 1.49 -18.53 2.83 -9.38 2.75 -15.70 -0.37 -24.56 -2.90 -8.33 -1.27 -6.62 4.24 4.47 6.62 13.32 9.53 24.71 8.56 33.64 l-0.45 4.69 -4.99 0 c-2.68 0 -5.58 0.22 -6.40 0.45 -0.82 0.22 -1.79 0.15 -2.08 -0.15z"/>
  <path d="M573.92 203.09 c-4.24 -4.09 -8.04 -8.33 -8.48 -9.45 -0.45 -1.12 -1.56 -5.51 -2.46 -9.90 -2.08 -9.75 -4.02 -14.29 -9.15 -21.36 l-3.94 -5.58 3.94 3.27 c2.16 1.79 7.81 7 12.50 11.61 13.17 12.80 15.93 18.46 15.48 32.07 l-0.22 6.77 -7.67 -7.44z"/>
  <path d="M442.57 205.40 c-0.89 -9.90 1.86 -18.90 7.74 -25.67 4.02 -4.61 21.58 -21.21 22.40 -21.21 0.37 0 -0.52 1.56 -2.01 3.50 -4.32 5.73 -7 11.91 -9 21.36 -0.97 4.91 -2.46 9.97 -3.27 11.16 -1.27 2.08 -3.80 4.69 -12.35 12.58 l-3.05 2.83 -0.45 -4.54z"/>
 </g>
</svg>