<?xml version="1.0" encoding="utf-8"?>
<svg version="1.1" xmlns="http://www.w3.org/2000/svg" xmlns:xlink="http://www.w3.org/1999/xlink" x="0px" y="0px"
	 viewBox="0 0 64 64" style="enable-background:new 0 0 64 64;" xml:space="preserve">
<style type="text/css">
	.st0{fill:#5D4037;} /* Marrón Primario Capilla */
	.st1{fill:#FFFFFF;} /* Blanco/Crema para contraste máximo */
</style>
<circle class="st0" cx="32" cy="32" r="32"/>
<path class="st1" d="M32,10c-1.7,0-3,1.3-3,3v13h-13c-1.7,0-3,1.3-3,3v6c0,1.7,1.3,3,3,3h13v13c0,1.7,1.3,3,3,3h6
	c1.7,0,3-1.3,3-3v-13h13c1.7,0,3-1.3,3-3v-6c0-1.7-1.3-3-3-3h-13v-13c0-1.7-1.3-3-3-3H32z"/>
</svg>
